<svg xmlns="http://www.w3.org/2000/svg" version="1.1" xmlns:xlink="http://www.w3.org/1999/xlink" xmlns:svgjs="http://svgjs.dev/svgjs" width="128" height="128" viewBox="0 0 128 128"><g transform="matrix(0.8046875,0,0,0.8046875,12.41184074821259,12.814873242367177)"><svg viewBox="0 0 98 98" data-background-color="#ffffff" preserveAspectRatio="xMidYMid meet" height="127" width="128" xmlns="http://www.w3.org/2000/svg" xmlns:xlink="http://www.w3.org/1999/xlink"><g id="tight-bounds" transform="matrix(1,0,0,1,0.08387967645792571,0.08387967645792571)"><svg viewBox="0 0 97.83224064708415 97.83224064708415" height="97.83224064708415" width="97.83224064708415"><g><svg></svg></g><g><svg viewBox="0 0 97.83224064708415 97.83224064708415" height="97.83224064708415" width="97.83224064708415"><g><path d="M0 48.916c0-27.016 21.9-48.916 48.916-48.916 27.016 0 48.916 21.9 48.916 48.916 0 27.016-21.9 48.916-48.916 48.916-27.016 0-48.916-21.9-48.916-48.916zM48.916 96.643c26.359 0 47.727-21.368 47.727-47.727 0-26.359-21.368-47.727-47.727-47.726-26.359 0-47.727 21.368-47.726 47.726 0 26.359 21.368 47.727 47.726 47.727z" data-fill-palette-color="tertiary" fill="#ed3b43" stroke="transparent"></path><ellipse rx="46.95947551060039" ry="46.95947551060039" cx="48.916120323542074" cy="48.916120323542074" fill="#ed3b43" stroke="transparent" stroke-width="0" fill-opacity="1" data-fill-palette-color="tertiary"></ellipse></g><g transform="matrix(1,0,0,1,23.47539391502934,42.32037643985359)"><svg viewBox="0 0 50.88145281702547 13.191487767376973" height="13.191487767376973" width="50.88145281702547"><g><svg viewBox="0 0 50.88145281702547 13.191487767376973" height="13.191487767376973" width="50.88145281702547"><g><svg viewBox="0 0 50.88145281702547 13.191487767376973" height="13.191487767376973" width="50.88145281702547"><g id="textblocktransform"><svg viewBox="0 0 50.88145281702547 13.191487767376973" height="13.191487767376973" width="50.88145281702547" id="textblock"><g><svg viewBox="0 0 50.88145281702547 13.191487767376973" height="13.191487767376973" width="50.88145281702547"><g><svg viewBox="0 0 50.88145281702547 13.191487767376973" height="13.191487767376973" width="50.88145281702547"><g><svg xmlns="http://www.w3.org/2000/svg" data-name="Your Icon" viewBox="36.5 39 27 7" x="0" y="0" height="13.191487767376973" width="50.88145281702547" class="icon-icon-0" data-fill-palette-color="quaternary" id="icon-0"><circle cx="40" cy="42.5" r="3.5" fill="#ffffff" data-fill-palette-color="quaternary"></circle><circle cx="50" cy="42.5" r="3.5" fill="#ffffff" data-fill-palette-color="quaternary"></circle><circle cx="60" cy="42.5" r="3.5" fill="#ffffff" data-fill-palette-color="quaternary"></circle></svg></g></svg></g></svg></g></svg></g></svg></g><g></g></svg></g></svg></g></svg></g><defs></defs></svg><rect width="97.83224064708415" height="97.83224064708415" fill="none" stroke="none" visibility="hidden"></rect></g></svg></g></svg>