<svg xmlns="http://www.w3.org/2000/svg" version="1.1" xmlns:xlink="http://www.w3.org/1999/xlink" xmlns:svgjs="http://svgjs.dev/svgjs" width="2000" height="2000" viewBox="0 0 2000 2000"><g transform="matrix(1,0,0,1,-0.28443113772425477,-0.28443113772459583)"><svg viewBox="0 0 334 334" data-background-color="#ffffff" preserveAspectRatio="xMidYMid meet" height="2000" width="2000" xmlns="http://www.w3.org/2000/svg" xmlns:xlink="http://www.w3.org/1999/xlink"><g id="tight-bounds" transform="matrix(1,0,0,1,0.04749999999998522,0.04750000000001364)"><svg viewBox="0 0 333.90454557049503 333.90454557049503" height="333.90454557049503" width="333.90454557049503"><g><svg></svg></g><g><svg viewBox="0 0 333.90454557049503 333.90454557049503" height="333.90454557049503" width="333.90454557049503"><g><path d="M0 166.952c0-92.205 74.747-166.952 166.952-166.952 92.205 0 166.952 74.747 166.953 166.952 0 92.205-74.747 166.952-166.953 166.953-92.205 0-166.952-74.747-166.952-166.953zM166.952 316.63c82.665 0 149.677-67.013 149.678-149.678 0-82.665-67.013-149.677-149.678-149.677-82.665 0-149.677 67.013-149.677 149.677 0 82.665 67.013 149.677 149.677 149.678z" data-fill-palette-color="tertiary" fill="#ed2647" stroke="transparent"></path><ellipse rx="160.27418187383762" ry="160.27418187383762" cx="166.95227278524752" cy="166.95227278524752" fill="#ed2647" stroke="transparent" stroke-width="0" fill-opacity="1" data-fill-palette-color="tertiary"></ellipse></g><g transform="matrix(1,0,0,1,125.71399724329008,71.17305217166896)"><svg viewBox="0 0 82.47655108391487 191.55844122715712" height="191.55844122715712" width="82.47655108391487"><g><svg viewBox="0 0 82.47655108391487 191.55844122715712" height="191.55844122715712" width="82.47655108391487"><g><svg viewBox="0 0 82.47655108391487 191.55844122715712" height="191.55844122715712" width="82.47655108391487"><g><svg viewBox="0 0 82.47655108391487 191.55844122715712" height="191.55844122715712" width="82.47655108391487"><g id="textblocktransform"><svg viewBox="0 0 82.47655108391487 191.55844122715712" height="191.55844122715712" width="82.47655108391487" id="textblock"><g><svg viewBox="0 0 82.47655108391487 191.55844122715712" height="191.55844122715712" width="82.47655108391487"><g transform="matrix(1,0,0,1,0,0)"><svg width="82.47655108391487" viewBox="1.25 -35.5 15.5 36" height="191.55844122715712" data-palette-color="#ffffff"><path d="M7.85 0.5L7.85 0.5Q4.4 0.5 2.83-0.48 1.25-1.45 1.25-2.5L1.25-2.5Q1.25-3.1 1.5-3.93 1.75-4.75 2.3-5.4L2.3-5.4Q3.1-4.65 4.38-4.15 5.65-3.65 7.45-3.65L7.45-3.65Q10.1-3.65 11.23-5.05 12.35-6.45 12.35-8.75L12.35-8.75Q12.35-10.45 11.73-11.9 11.1-13.35 9.45-15.25L9.45-15.25 4.45-21.1Q2.75-23.2 2.02-24.88 1.3-26.55 1.3-28.35L1.3-28.35Q1.3-31.5 3.53-33.5 5.75-35.5 9.9-35.5L9.9-35.5Q13.45-35.5 14.95-34.77 16.45-34.05 16.45-33L16.45-33Q16.45-32.5 16.2-31.88 15.95-31.25 15.45-30.7L15.45-30.7Q14.95-31.05 13.63-31.48 12.3-31.9 10.55-31.9L10.55-31.9Q8.3-31.9 6.98-31 5.65-30.1 5.65-28.45L5.65-28.45Q5.65-27.1 6.28-25.98 6.9-24.85 8-23.5L8-23.5 13.4-17.35Q15.35-15.05 16.05-13.15 16.75-11.25 16.75-8.9L16.75-8.9Q16.75-6.4 15.93-4.25 15.1-2.1 13.18-0.8 11.25 0.5 7.85 0.5Z" opacity="1" transform="matrix(1,0,0,1,0,0)" fill="#ffffff" class="wordmark-text-0" data-fill-palette-color="quaternary" id="text-0"></path></svg></g></svg></g></svg></g></svg></g><g></g></svg></g></svg></g></svg></g></svg></g><defs></defs></svg><rect width="333.90454557049503" height="333.90454557049503" fill="none" stroke="none" visibility="hidden"></rect></g></svg></g></svg>